<?xml version="1.0" encoding="UTF-8"?>
<svg width="242px" height="250px" viewBox="0 0 242 250" version="1.1" xmlns="http://www.w3.org/2000/svg" xmlns:xlink="http://www.w3.org/1999/xlink">
    <!-- Generator: Sketch 53.2 (72643) - https://sketchapp.com -->
    <title>peppa</title>
    <desc>Created with Sketch.</desc>
    <g id="Page-1" stroke="none" stroke-width="1" fill="none" fill-rule="evenodd">
        <g id="Artboard" transform="translate(-146.000000, -102.000000)" fill-rule="nonzero">
            <g id="peppa" transform="translate(146.000000, 102.000000)">
                <path d="M227.545695,36.3370657 C237.37383,46.3750977 233.756187,62.0402317 226.138148,72.3221147 C215.60624,86.5457477 201.231358,89.9534927 184.464263,88.5274257 C184.257453,88.2372737 184.007428,87.9687277 183.667888,87.7341367 C170.496829,78.5233477 180.754019,53.7647197 187.618897,43.8100287 C196.706218,30.6297097 214.306728,22.7925127 227.545695,36.3370657 Z M214.448718,69.8033467 C223.46813,70.9053077 223.569992,53.8233677 213.368364,56.4841247 C206.772031,58.2034317 207.858558,69.0007977 214.448718,69.8033467 Z M195.341885,64.8738457 C204.361298,65.9788937 204.46316,48.8938667 194.261531,51.5546237 C187.674458,53.2739297 188.754812,64.0743837 195.341885,64.8738457 L195.341885,64.8738457 Z" id="path64665" transform="translate(205.407327, 59.048679) scale(-1, 1) rotate(-180.000000) translate(-205.407327, -59.048679) "></path>
                <path d="M35.1988772,49.4091393 C40.5049589,44.2018333 47.780711,40.8129473 54.923395,37.3218603 C60.914729,34.3925573 70.801605,31.1141153 77.299163,29.5861863 C88.797216,26.8760413 98.353966,28.0722093 110.173039,29.3623983 C118.386817,30.2482893 123.983297,33.1130793 131.700112,35.7213623 C132.857634,36.1164633 140.797773,38.3096433 141.942948,38.7417853 C147.020612,40.6462953 148.911788,41.5482053 153.828942,44.3077383 C157.72439,46.4993133 160.794416,50.7482223 164.353411,53.4738013 C168.427889,56.6068283 172.212215,60.4488763 175.527359,64.2918493 C178.851762,68.1348233 180.64481,69.8327693 182.88886,74.3856893 C183.682149,76.0062213 185.121828,81.2475743 185.75152,82.9607063 C188.029524,89.0940303 189.855014,97.3671353 190.02787,103.426377 C190.225421,110.433245 187.377885,116.636298 185.402381,123.377707 L176.372689,145.765915 C190.642623,153.047501 210.434894,167.980587 222.121238,179.179228 C207.227786,176.709847 190.736583,185.014035 182.726529,199.907487 C176.562338,211.371586 172.415692,234.460974 181.19434,246.437471 C160.880598,244.230462 128.601194,238.863232 108.614644,232.615699 L118.614648,235.466661 C113.34252,233.821436 92.290772,227.524762 92.290772,227.524762 C73.270399,218.732748 60.109156,210.8649 46.760764,201.249966 C42.3220526,197.690971 28.0615337,184.714869 28.0615337,184.714869 C28.0615337,184.714869 17.8371867,167.26141 12.8098672,155.235804 C8.60266,143.413645 5.6514106,129.437537 6.1761539,116.899257 C6.4539593,110.293663 7.6445094,96.6131403 9.0798369,90.2699193 C10.7744494,82.7444813 15.4422579,76.5744253 18.8469164,69.8515363 C22.6096352,62.4217873 29.2322362,55.2615093 35.1988772,49.4090773 L35.1988772,49.4091393 Z M118.50402,223.725651 C121.158604,226.568525 124.408926,228.577984 127.918533,229.59043 C131.980664,230.763386 136.385422,230.590529 140.561762,228.824922 C147.580977,225.858578 152.590733,219.027654 152.661727,211.3201 C152.760503,199.550414 141.231582,189.635851 129.458809,190.605083 C113.599212,191.904594 108.382646,212.866549 118.50402,223.725651 L118.50402,223.725651 Z M70.826453,194.25668 C71.925327,197.155115 73.502644,199.967122 75.475062,202.350075 C77.225235,204.464482 79.253214,206.418379 81.497264,207.930875 C85.793986,210.816963 90.846956,212.091781 96.106737,209.810691 C102.162893,207.186974 106.138596,200.988828 107.805428,194.81229 C110.490879,184.928594 107.178823,174.143574 97.477243,169.636955 C87.40217,164.951305 75.749781,168.52882 71.199947,178.884785 C69.045412,183.777245 68.93429,189.265444 70.826453,194.25668 L70.826453,194.25668 Z M29.1217006,104.49778 C24.2848013,110.893476 21.7845534,121.508726 23.645849,130.484925 C24.7231163,135.652103 27.2418846,140.285279 31.6003414,143.260883 C40.610494,149.421987 53.932803,147.122377 62.66515,141.649612 C74.243458,134.389633 77.734545,121.252528 73.305094,108.615472 C70.915968,101.821589 66.409348,95.5462753 59.399394,93.0738083 C48.284094,89.1629263 35.826069,95.6327033 29.1217006,104.49778 L29.1217006,104.49778 Z" id="path64667" transform="translate(114.118494, 137.195134) scale(-1, 1) rotate(-180.000000) translate(-114.118494, -137.195134) "></path>
                <g id="Group" transform="translate(0.769030, 0.499969)" fill="#CCCCCC">
                    <path d="M193.492501,52.9538833 C203.69413,50.2931263 203.592268,67.3781533 194.572855,66.2731053 C187.985782,65.4736433 186.905428,54.6731893 193.492501,52.9538833" id="path64669" transform="translate(195.152269, 59.498325) scale(-1, 1) rotate(-180.000000) translate(-195.152269, -59.498325) "></path>
                    <path d="M212.599334,48.0246999 C222.800962,45.3639429 222.6991,62.4458829 213.679688,61.3439219 C207.089528,60.5413729 206.003001,49.7440069 212.599334,48.0246999" id="path64671" transform="translate(214.256708, 54.568982) scale(-1, 1) rotate(-180.000000) translate(-214.256708, -54.568982) "></path>
                    <path d="M27.8217534,23.8713641 C27.9205287,23.7787621 28.0131304,23.6799871 28.1088189,23.5935591 C30.0966704,21.7230031 32.2357713,19.9759161 34.4582139,18.2998241 C37.9986884,15.6267191 41.7922747,13.1727721 45.9254007,11.0305851 C53.9323667,6.88511209 62.4733377,3.97124309 71.2705057,2.17476809 C82.9012887,-0.180403906 94.9672997,-0.575503906 106.814154,0.761048094 C115.645276,1.75188709 124.346756,3.70578409 132.653135,6.51470509 C133.758183,6.89128509 134.857058,7.27712609 135.952845,7.68766109 C141.6139,9.79280809 147.16692,12.3671371 152.454481,15.4013881 C156.806765,17.9016361 160.961498,20.7290771 164.872379,23.8559301 C165.196485,24.1183021 165.529852,24.3652401 165.850871,24.6245251 C167.69056,26.1462811 169.459254,27.7452051 171.1693,29.4089501 C173.385569,31.5573111 175.493803,33.8167941 177.441527,36.1997471 C180.037463,39.3790741 182.380288,42.7652131 184.4237,46.3612481 C185.096607,47.5527241 185.741732,48.7627211 186.352904,50.0035851 C187.334483,51.9976091 188.189506,54.0070681 188.917973,56.0319601 C191.233018,62.4060491 192.365846,68.9221271 192.501662,75.4289451 C192.652911,82.9358621 191.486129,90.4396931 189.300727,97.7336261 C187.121499,105.027559 183.923651,112.111594 180.009683,118.785096 C201.703192,126.937138 221.408849,146.238435 234.549041,163.379023 C235.04909,164.036496 235.234294,164.715575 235.20034,165.373048 C243.36473,176.158068 241.417006,192.110267 234.999703,204.000335 C225.427766,221.745921 202.453266,234.003309 182.454369,227.869985 C182.031488,227.740343 181.670341,227.539706 181.352408,227.308201 C158.229745,224.727698 134.736675,220.711868 112.215924,213.927245 C112.20049,213.921071 112.185057,213.914898 112.17271,213.911811 C111.092356,213.584618 110.015088,213.245078 108.940908,212.911712 C107.104306,212.331408 105.264617,211.73567 103.440362,211.118324 C102.468044,210.791131 101.495725,210.445418 100.526493,210.102792 C98.6775437,209.448406 96.8316817,208.78476 95.0012537,208.090246 C95.1525037,209.951542 95.2265847,211.800491 95.2481917,213.590792 C95.3068397,218.199273 94.6771477,222.900357 93.3591157,227.320548 C91.1891477,234.583614 86.8121707,241.01635 80.5738977,245.350114 C70.2951007,252.483537 55.2318787,250.149972 51.6296697,237.012867 C49.8640627,230.57087 51.3395177,223.517702 53.5310927,217.375118 C56.4418747,209.198381 60.9454077,201.672943 66.1774087,194.743244 C64.6926927,193.912915 63.2141517,193.060978 61.7510437,192.187435 C61.5689267,192.0794 61.3898967,191.965191 61.2077797,191.860242 C58.7908737,190.412568 56.3955737,188.906246 54.0434887,187.341276 C53.9724947,187.291888 53.8953267,187.2425 53.8274187,187.193113 C53.2162467,186.788752 52.6112487,186.368957 52.0062497,185.955336 C50.4628867,189.906345 48.4688627,193.749318 46.5026177,197.194104 C43.7430847,202.021743 40.2365646,206.571577 36.0200972,210.20774 C29.7787376,215.597164 21.534093,219.032689 13.2585811,217.072618 C6.34740213,215.439741 1.26047793,209.395931 0.251118632,202.469319 C-1.19655577,192.496108 3.82554713,183.272971 9.90331023,175.756794 C14.2463334,170.382804 19.5956292,165.755802 25.2875516,161.712191 C16.8823972,151.346966 10.2737173,139.546413 6.07577023,126.792062 C2.38713293,115.608855 0.575224832,103.829909 0.729561132,92.0509631 C0.828336332,84.6119541 1.59384433,77.2809801 3.05695243,70.1969451 C3.44896653,68.2800881 3.91197543,66.3848381 4.41819843,64.4988491 C6.14985163,57.9827711 8.49267653,51.7105441 11.5022341,45.8241581 C15.6662272,37.6721151 21.0865178,30.2547131 27.8217534,23.8713641 L27.8217534,23.8713641 Z M182.898858,219.449397 C183.238398,219.683988 183.488423,219.952534 183.695233,220.242686 C200.462328,221.668753 214.83721,218.261008 225.369118,204.037375 C232.987157,193.755492 236.6048,178.090358 226.776665,168.052326 C213.537698,154.507773 195.937188,162.34497 186.849867,175.525289 C179.984989,185.47998 169.727799,210.238608 182.898858,219.449397 Z M63.9055777,240.83732 C63.8994047,240.83732 63.8932307,240.83732 63.8870577,240.83732 C63.0412947,240.503954 64.4611887,241.133646 63.9055777,240.83732 Z M62.2726997,239.892782 C62.2665267,239.886609 62.2603537,239.880435 62.2541797,239.874262 C61.7880837,239.562503 62.9548667,240.476173 62.2726997,239.892782 Z M59.1798007,225.286396 C58.5315887,228.434856 58.4822007,232.009285 59.0964597,234.592874 C59.6860237,237.071515 60.3002827,238.19817 62.2603537,239.880435 C62.2943067,239.905129 62.3159147,239.917476 62.3653017,239.954517 C62.5906327,240.108853 62.8344837,240.257016 63.0721617,240.395919 C63.3129267,240.540995 63.5598647,240.664464 63.8068027,240.79102 C63.8623637,240.8188 63.8808847,240.824973 63.9148387,240.846581 C64.4241477,241.047218 64.9704987,241.192294 65.5045017,241.32811 C65.7853937,241.392931 66.0631997,241.445405 66.3379177,241.494793 C66.3410047,241.494793 66.3471777,241.494793 66.3471777,241.494793 C66.1588877,241.48862 66.4181727,241.528747 66.5076877,241.53492 C66.5601627,241.544181 66.5539887,241.528747 66.3471777,241.494793 C66.4181727,241.494793 66.5200347,241.500966 66.7237587,241.5164 C67.3133237,241.562701 67.9028877,241.550354 68.4986257,241.52566 C68.9523747,241.50714 69.0943637,241.510227 69.1406647,241.5164 C69.1406647,241.50714 69.2116597,241.479359 69.5666327,241.423798 C70.1870647,241.312676 70.8013237,241.15834 71.4063217,240.985483 C71.7211677,240.899055 73.0145057,240.417526 73.0700667,240.420612 C73.0145057,240.442219 72.9743787,240.466913 72.9249907,240.491607 C73.0453727,240.436046 73.0762407,240.420612 73.0700667,240.420612 C78.6107397,237.985186 82.4691467,233.370531 84.6885027,227.863812 C86.3152077,223.851068 87.0375007,219.631514 87.1764037,215.340965 C87.2967857,211.60294 86.6670937,208.059379 86.0620957,204.488037 C81.2745837,202.441538 76.5642407,200.222182 71.9434117,197.833057 C66.4089127,206.336986 61.2324737,215.362572 59.1798007,225.286396 L59.1798007,225.286396 Z M9.08532783,191.39106 C7.83520393,194.826586 7.34441453,198.613998 7.96793313,201.583428 C8.52971723,204.210232 10.0576465,206.52219 11.5084076,207.608717 C14.0086555,209.470013 15.7896963,209.797206 18.8239477,209.695344 C21.72547,209.590395 25.1826029,208.133461 28.1365995,206.194997 C36.8473397,200.46912 41.492862,190.465042 44.9407347,180.831371 C39.3691947,176.543909 34.1742351,171.778004 29.4669783,166.576871 C20.9723089,173.271979 12.764705,181.288206 9.08532783,191.39106 Z M10.8108076,72.4780351 C9.37548013,78.8212571 8.54206413,85.3589421 8.26425883,91.9645351 C7.73951543,104.502815 9.61933143,117.050356 13.8265387,128.872515 C16.0242874,135.030533 18.9628504,140.839751 22.4539373,146.300169 C22.457024,146.303256 22.4601107,146.306343 22.4693709,146.312516 C23.4509497,147.852792 24.4850029,149.365288 25.55301,150.846916 C25.6240047,150.942605 25.6949994,151.03212 25.7598206,151.124722 C26.735226,152.455101 27.7353251,153.763872 28.7693783,155.04795 C28.9237146,155.236241 29.0687907,155.424531 29.2200402,155.609734 C29.8373854,156.362895 30.4825111,157.091363 31.1214633,157.832177 C31.5505182,157.566718 31.9764864,157.285826 32.408628,157.023455 C35.7206848,155.007823 38.3845291,159.924977 35.3842317,162.110379 C35.3070635,162.169027 35.2298954,162.224588 35.1496405,162.280149 C39.1006495,166.407101 43.3387237,170.256248 47.7774357,173.815243 C49.8424557,171.39525 54.9571597,172.944786 54.5373657,176.466741 C54.4540237,177.195208 54.3182077,177.932935 54.1762187,178.67375 C56.1609827,180.090557 58.1673547,181.479583 60.2138537,182.813049 C60.8034187,183.192716 61.4022437,183.544603 61.9948947,183.918097 C63.6956807,184.995364 65.3841197,186.066458 67.1219467,187.088164 C67.7022507,187.427704 68.2949017,187.74255 68.8813797,188.075916 C69.4802047,188.42163 70.0913767,188.751909 70.7025487,189.091449 C70.8136707,188.955633 70.9247927,188.813644 71.0390017,188.677828 C73.1101947,186.242401 77.1229377,189.202571 75.8419467,191.881849 C79.0583147,193.554855 82.3456777,195.125998 85.6731687,196.63232 C87.0529347,194.34197 91.2076677,193.761665 92.4423577,196.586019 C92.9238877,197.700327 93.3097277,198.86711 93.6492677,200.061673 C94.7728357,200.518508 95.8902307,201.000037 97.0292327,201.441439 C97.1002277,201.463046 97.1681357,201.490827 97.2360437,201.518607 C102.363095,203.503372 107.573488,205.31528 112.845616,206.960505 L112.845616,206.966678 C132.832165,213.214211 153.682998,217.152873 173.996741,219.359882 C165.218093,207.383386 172.221873,186.436865 178.386065,174.972765 C186.396118,160.079313 200.030186,151.417961 214.923638,153.887341 C203.237294,142.6887 190.587892,132.755617 176.317959,125.47403 C176.018546,125.872218 175.700613,126.242625 175.339466,126.551298 C172.351516,129.11328 168.607317,125.967906 170.10438,122.529294 C168.724613,121.915036 167.335586,121.325471 165.924953,120.766774 C162.572769,119.445655 163.859933,114.880387 167.397321,115.420564 C169.511728,115.747757 171.613788,116.204593 173.703502,116.76329 C177.213109,110.423155 180.136238,103.811389 182.13335,97.0144181 C184.108854,90.2730091 185.170688,83.3556571 184.973138,76.3487891 C184.800281,70.2895461 183.68906,64.1593091 181.411056,58.0259851 C180.781364,56.3128521 180.055983,54.6429331 179.262695,53.0224021 C177.018645,48.4694821 174.154164,44.2715351 170.82976,40.4285611 C167.514617,36.5855871 163.730291,33.1006741 159.655813,29.9676471 C156.096818,27.2420681 152.312492,24.7788611 148.417044,22.5872861 C143.49989,19.8277531 138.394445,17.4972751 133.316781,15.5927651 C132.171606,15.1606241 131.017171,14.7531761 129.859649,14.3580751 C122.142834,11.7497921 114.046352,9.95640409 105.832575,9.07051409 C94.0135017,7.78026209 81.9567507,8.36982709 70.4586967,11.0799721 C63.9611387,12.6079011 57.6456977,14.8149101 51.6543637,17.7442131 C44.5116797,21.2353001 38.307361,25.6956191 33.0012793,30.9029251 C27.0346384,36.7553571 22.197739,43.5585011 18.4350203,50.9882501 C15.0303617,57.7111391 12.50542,64.9525981 10.8108076,72.4780351 L10.8108076,72.4780351 Z" id="path64673" transform="translate(120.298777, 124.656325) scale(-1, 1) rotate(-180.000000) translate(-120.298777, -124.656325) "></path>
                    <path d="M86.7257417,79.4781352 C91.9145277,80.3732862 93.3560287,85.7750562 90.1087937,89.5902492 C87.1208427,93.0905962 80.1139757,92.0750632 79.2342587,87.2443372 C78.5181377,83.3427162 82.7253457,78.7867092 86.7257417,79.4781352" id="path64681" transform="translate(85.495400, 85.537952) scale(-1, 1) rotate(-180.000000) translate(-85.495400, -85.537952) "></path>
                    <path d="M129.973857,57.5867052 C135.153383,58.4818552 136.597971,63.8836262 133.350735,67.6988192 C130.359698,71.1991662 123.355917,70.1928932 122.473114,65.3559942 C121.756993,61.4543722 125.964201,56.8983652 129.973857,57.5867052" id="path64683" transform="translate(128.735561, 63.648251) scale(-1, 1) rotate(-180.000000) translate(-128.735561, -63.648251) "></path>
                    <path d="M96.7082127,64.9356059 C106.409793,69.4422249 109.721849,80.2272449 107.036398,90.1109409 C105.369566,96.2874789 101.393863,102.485625 95.3377067,105.109342 C90.0779257,107.390432 85.0249557,106.115614 80.7282337,103.229526 C78.4841837,101.71703 76.4562047,99.7631329 74.7060317,97.6487259 C72.7336137,95.2657729 71.1562967,92.4537659 70.0574227,89.5553309 C68.1652597,84.5640949 68.2763817,79.0758959 70.4309167,74.1834359 C74.9807507,63.8274709 86.6331397,60.2499559 96.7082127,64.9356059 L96.7082127,64.9356059 Z M76.7216637,89.4164279 C77.5735997,91.2283359 78.7249487,92.8889939 80.0584137,94.3737099 C82.4413667,97.0190339 87.6641067,98.8000739 91.1274127,98.0098719 C95.2080647,97.0869409 98.0632857,93.4137379 99.8041987,89.8362229 C103.511357,82.2583109 100.36907,73.8685899 92.6399087,70.7571699 C85.8305917,68.0254179 78.7589027,70.9578079 76.1166657,77.7979919 C74.6473837,81.6039249 75.0023577,85.7586579 76.7216637,89.4164279 L76.7216637,89.4164279 Z" id="path64685" transform="translate(88.327546, 84.594475) scale(-1, 1) rotate(-180.000000) translate(-88.327546, -84.594475) "></path>
                    <path d="M128.689779,43.6179977 C140.462552,42.6487657 151.991473,52.5633287 151.892697,64.3330147 C151.821703,72.0405687 146.811947,78.8714927 139.792732,81.8378367 C135.616392,83.6034437 131.211634,83.7763007 127.149503,82.6033447 C123.639896,81.5908987 120.389574,79.5814397 117.73499,76.7385657 C107.613616,65.8794637 112.830182,44.9175087 128.689779,43.6179977 L128.689779,43.6179977 Z M122.26939,71.9417937 C124.744944,74.8957897 127.479783,75.6427777 131.125206,75.3649727 C137.690672,74.8680097 143.493716,71.4201367 144.104888,64.3330147 C144.802488,56.2766597 135.249072,50.1618567 127.856363,51.2175167 C122.294084,52.0138917 119.654933,57.5885187 119.367868,62.6692697 C119.182664,65.9782397 120.127202,69.3767247 122.26939,71.9417937 L122.26939,71.9417937 Z" id="path64687" transform="translate(132.218092, 63.451607) scale(-1, 1) rotate(-180.000000) translate(-132.218092, -63.451607) "></path>
                    <path d="M133.26122,163.279088 C117.562133,159.649098 104.37564,164.041509 94.3190877,176.450147 C91.6490697,179.74677 86.2627327,175.984051 88.2320637,172.286154 C106.462267,138.063625 169.545682,156.161098 164.529753,195.433511 C164.131565,198.52641 158.99834,198.189957 159.044641,195.06619 C159.254538,179.184986 148.71337,166.844256 133.26122,163.279088" id="path64689" transform="translate(126.310562, 175.898480) scale(-1, 1) rotate(-180.000000) translate(-126.310562, -175.898480) "></path>
                    <path d="M73.0700667,8.82412898 C73.0762407,8.82412898 73.0453727,8.83956298 72.9249907,8.89512398 C72.9743787,8.87042998 73.0145057,8.84573598 73.0700667,8.82412898 L73.0700667,8.82104298 L73.0700667,8.82412898" id="path64693" transform="translate(72.997901, 8.858083) scale(-1, 1) rotate(-180.000000) translate(-72.997901, -8.858083) "></path>
                    <path d="M62.2726997,9.3057718 C62.9548667,9.8891628 61.7880837,8.9754928 62.2541797,9.2872518 C62.2603537,9.2934248 62.2665267,9.2995988 62.2726997,9.3057718" id="path64695" transform="translate(62.316675, 9.362820) scale(-1, 1) rotate(-180.000000) translate(-62.316675, -9.362820) "></path>
                    <path d="M66.3471777,7.77572639 C66.5539887,7.80968039 66.5601627,7.82511439 66.5076877,7.81585339 C66.4181727,7.80968039 66.1588877,7.76955339 66.3471777,7.77572639" id="path64697" transform="translate(66.407803, 7.796792) scale(-1, 1) rotate(-180.000000) translate(-66.407803, -7.796792) "></path>
                    <path d="M63.9055777,8.49384286 C64.4611887,8.79016886 63.0412947,8.16047686 63.8870577,8.49384286 C63.8932307,8.49384286 63.8994047,8.49384286 63.9055777,8.49384286" id="path64699" transform="translate(63.824753, 8.484586) scale(-1, 1) rotate(-180.000000) translate(-63.824753, -8.484586) "></path>
                </g>
                <path d="M128.625393,52.1031109 C136.018102,51.0474509 145.571518,57.1622539 144.873918,65.2186089 C144.262746,72.3057309 138.459702,75.7536039 131.894236,76.2505669 C128.248813,76.5283719 125.513974,75.7813839 123.03842,72.8273879 C120.896232,70.2623189 119.951694,66.8638339 120.136898,63.5548639 C120.423963,58.4741129 123.063114,52.8994859 128.625393,52.1031109 L128.625393,52.1031109 Z M123.242144,65.8483009 C124.124947,70.6851999 131.128728,71.6914729 134.119765,68.1911259 C137.367001,64.3759329 135.922413,58.9741619 130.742887,58.0790119 C126.733231,57.3906719 122.526023,61.9466789 123.242144,65.8483009 L123.242144,65.8483009 Z" id="path64677" transform="translate(132.512096, 64.144388) scale(-1, 1) rotate(-180.000000) translate(-132.512096, -64.144388) "></path>
                <path d="M93.408939,72.5044326 C101.1381,75.6158526 104.280387,84.0055736 100.573229,91.5834856 C98.832316,95.1610006 95.977095,98.8342036 91.896443,99.7571346 C88.433137,100.547337 83.210397,98.7662966 80.827444,96.1209726 C79.493979,94.6362566 78.34263,92.9755986 77.490694,91.1636906 C75.771388,87.5059206 75.416414,83.3511876 76.885696,79.5452546 C79.527933,72.7050706 86.599622,69.7726806 93.408939,72.5044326 L93.408939,72.5044326 Z M80.003289,87.1046456 C80.883006,91.9353716 87.889873,92.9509046 90.877824,89.4505576 C94.125059,85.6353646 92.683558,80.2335946 87.494772,79.3384436 C83.494376,78.6470176 79.287168,83.2030246 80.003289,87.1046456 L80.003289,87.1046456 Z" id="path64679" transform="translate(89.045890, 85.718091) scale(-1, 1) rotate(-180.000000) translate(-89.045890, -85.718091) "></path>
                <path d="M86.831126,14.9199333 C87.436124,18.4912753 88.065816,22.0348363 87.945434,25.7728613 C87.806531,30.0634103 87.084238,34.2829643 85.457533,38.2957083 C83.238177,43.8024273 79.37977,48.4170823 73.839097,50.8525083 L73.839097,50.8494223 L73.839097,50.8525083 C73.783536,50.8494223 72.490198,51.3309513 72.175352,51.4173793 C71.570354,51.5902363 70.956095,51.7445723 70.335663,51.8556943 C69.98069,51.9112553 69.909695,51.9390363 69.909695,51.9482963 C69.863394,51.9421233 69.721405,51.9390363 69.267656,51.9575563 C68.671918,51.9822503 68.082354,51.9945973 67.492789,51.9482963 C67.289065,51.9328623 67.187203,51.9266893 67.116208,51.9266893 C67.116208,51.9266893 67.110035,51.9266893 67.106948,51.9266893 C66.83223,51.8773013 66.554424,51.8248273 66.273532,51.7600063 C65.739529,51.6241903 65.193178,51.4791143 64.683869,51.2784773 C64.649915,51.2568693 64.631394,51.2506963 64.575833,51.2229163 C64.328895,51.0963603 64.081957,50.9728913 63.841192,50.8278153 C63.603514,50.6889123 63.359663,50.5407493 63.134332,50.3864133 C63.084945,50.3493723 63.063337,50.3370253 63.029384,50.3123313 C61.069313,48.6300663 60.455054,47.5034113 59.86549,45.0247703 C59.251231,42.4411813 59.300619,38.8667523 59.948831,35.7182923 C62.001504,25.7944683 67.177943,16.7688823 72.712442,8.26495335 C77.333271,10.6540783 82.043614,12.8734343 86.831126,14.9199333" id="path64691" transform="translate(73.696389, 30.122258) scale(-1, 1) rotate(-180.000000) translate(-73.696389, -30.122258) "></path>
                <path d="M45.709765,54.3551584 C42.2618923,63.9888294 37.61637,73.9929074 28.9056298,79.7187844 C25.9516332,81.6572484 22.4945003,83.1141824 19.592978,83.2191314 C16.5587266,83.3209934 14.7776858,82.9938004 12.2774379,81.1325044 C10.8266768,80.0459774 9.2987475,77.7340194 8.7369634,75.1072154 C8.1134448,72.1377854 8.6042342,68.3503734 9.8543581,64.9148474 C13.5337353,54.8119934 21.7413392,46.7957664 30.2360086,40.1006584 C34.9432654,45.3017914 40.138225,50.0676964 45.709765,54.3551584" id="path64701" transform="translate(27.088356, 61.668203) scale(-1, 1) rotate(-180.000000) translate(-27.088356, -61.668203) "></path>
            </g>
        </g>
    </g>
</svg>