<?xml version="1.0" encoding="UTF-8"?>
<svg width="320px" height="430px" viewBox="0 0 320 430" version="1.1" xmlns="http://www.w3.org/2000/svg" xmlns:xlink="http://www.w3.org/1999/xlink">
    <!-- Generator: Sketch 53.2 (72643) - https://sketchapp.com -->
    <title>peppa-pig-seeklogo.com</title>
    <desc>Created with Sketch.</desc>
    <g id="Page-1" stroke="none" stroke-width="1" fill="none" fill-rule="evenodd">
        <g id="peppa-pig-seeklogo.com" transform="translate(0.000000, -1.000000)" fill-rule="nonzero">
            <g id="g65983" transform="translate(160.549831, 215.545281) scale(-1, 1) rotate(-180.000000) translate(-160.549831, -215.545281) translate(0.549831, 0.545281)">
                <path d="M43.1076836,102.797735 C44.9103315,105.835073 45.9166041,109.073048 45.9166041,112.122733 C45.9166041,112.996277 45.8332625,113.848213 45.6820129,114.678542 C45.0029332,118.21593 42.8730924,121.277962 39.5239949,123.506578 C33.1097787,127.781693 27.3777289,125.330833 24.1613606,121.608242 C21.8185358,118.910443 20.3646879,115.119944 20.3646879,111.280057 C20.3646879,108.011215 21.4110879,104.711505 23.8526881,101.992099 C23.8526881,101.992099 24.1212332,101.729728 24.2601359,101.590825 C20.2319587,101.309933 15.7809001,102.732913 13.6973602,107.727236 C12.8948115,109.637919 11.3884893,110.857176 9.55188743,111.07942 C7.77084664,111.286231 5.94350497,110.496029 4.89710492,109.063788 C3.8414447,107.616114 3.72414912,105.714691 4.56991198,103.856482 C7.1318944,98.2386407 11.7928504,94.2042901 17.6823232,92.4911573 C23.7137854,90.7409838 30.2638175,91.7225626 35.7334957,95.1611751 C40.1999879,94.0406936 44.8547704,94.0900813 49.114452,95.1148742 C49.5743741,98.0657841 50.0497299,101.016694 50.5466928,103.970691 C48.1853475,103.140361 45.6326253,102.739087 43.1076836,102.797735 L43.1076836,102.797735 Z M35.7612762,108.480397 C35.1871452,107.474124 34.3074283,106.54502 33.3628902,105.649869 C31.418253,106.835172 30.1835627,108.174811 29.9458848,109.69348 C29.9273644,109.807689 29.9150175,109.928071 29.9150175,110.066974 C29.9150175,111.138068 30.4551945,112.863548 31.4028194,114.132192 C31.9399097,114.848312 32.5109539,115.280454 33.0017433,115.339102 C33.9277611,115.459484 34.9926815,114.842139 35.7057151,113.771045 C36.236632,112.97467 36.5051771,112.070259 36.5051771,111.147328 C36.5051771,110.249091 36.2551523,109.338507 35.7612762,108.480397 L35.7612762,108.480397 Z" id="path64649" fill="#F4BFD9"></path>
                <path d="M259.502596,168.99257 L269.790653,164.773015 L270.781492,164.322353 C270.781492,164.322353 271.127205,164.16493 271.361796,164.063068 C271.39575,164.047635 271.426618,164.032201 271.457485,164.016768 C271.457485,164.016768 291.388473,154.815238 291.413167,154.796718 C291.499595,154.76585 291.573677,154.759677 291.660105,154.722636 C291.709493,154.642381 291.75888,154.555953 291.817528,154.475698 L292.59847,153.099018 L294.262215,147.990487 C294.799305,146.101411 295.348743,144.144427 296.166725,142.280044 C297.027921,140.32306 298.916998,139.505078 300.97893,140.196505 C302.716757,140.776809 304.309508,142.428207 304.309508,144.524094 C304.309508,144.8482 304.27864,145.175393 304.195299,145.50876 C303.849585,147.021255 303.364969,148.626353 302.741451,150.422827 L309.788446,144.588915 L311.646655,143.005425 C313.927745,141.070048 316.511335,141.746041 317.934315,143.202975 C319.329515,144.629043 319.943774,147.163245 317.989876,149.376427 C314.245678,153.629935 309.563115,156.855564 304.309508,160.173794 C305.300347,160.485553 306.285012,160.760272 307.24807,160.967082 L311.800991,161.531953 L315.94029,162.013482 C318.391151,162.448711 319.462244,164.791536 319.422117,166.7763 C319.375816,169.100605 317.965182,170.847692 315.90325,171.13167 C310.109465,171.940393 301.945076,168.998743 296.422923,165.723727 C295.922874,165.430488 295.453691,165.134162 295.02155,164.84401 C288.696848,168.220888 282.085082,171.326134 275.396147,174.0548 C275.389973,174.0548 275.380713,174.0548 275.371453,174.057887 C275.36528,174.06406 275.35602,174.070233 275.340586,174.076407 C265.09883,178.24966 255.517633,181.18205 246.797632,182.830361 C248.58176,179.330014 250.233158,175.755586 251.776521,172.116336 C254.360111,171.029809 256.949874,169.998842 259.502596,168.99257" id="path64651" fill="#F4BFD9"></path>
                <path d="M210.284753,16.3694123 C207.293716,14.7643149 208.370983,10.4768528 210.574905,8.79767395 C211.133603,8.37170579 211.763295,8.10007392 212.423854,8.10624737 C221.511175,8.11242082 230.546021,9.35637132 239.969795,10.4089448 C243.20777,10.767005 247.161866,11.1096316 251.04188,11.8195785 C255.644189,12.6591679 260.135375,14.0235007 263.197407,16.59783 C266.725534,19.5518266 265.808777,25.3147437 261.521314,27.0155296 C254.566921,29.7565421 244.306645,26.3395367 237.352251,24.4998481 C231.647982,22.981179 226.067182,21.3452143 220.529596,19.6567753 C217.356442,18.6875434 214.192548,17.6997912 211.041001,16.6935185 C210.763195,16.6040035 210.510084,16.4959681 210.284753,16.3694123" id="path64653" fill="#231F20"></path>
                <path d="M206.086806,46.5977181 C206.099153,46.542157 206.096066,46.4927694 206.102239,46.4372084 C207.330756,36.3652221 208.821645,26.2901491 210.260059,16.542269 L210.284753,16.3694123 C210.510084,16.4959681 210.763195,16.6040035 211.041001,16.6935185 C214.192548,17.6997912 217.356442,18.6875434 220.529596,19.6567753 C219.486283,26.3642305 218.680647,33.2908432 217.912052,40.0322523 C217.912052,40.0322523 217.140371,46.6069783 216.979861,47.9620509 C216.970601,48.017612 216.973688,48.0639129 216.967514,48.1133005 C216.618714,50.9746953 216.248307,53.8762175 215.843946,56.7993469 C212.213957,56.7839132 208.59014,56.7684796 204.963238,56.7684796 C205.284257,53.533591 205.660838,50.1567129 206.086806,46.5977181" id="path64655" fill="#F4BFD9"></path>
                <path d="M95.3042169,19.2431541 C91.328514,18.6566762 91.4242025,12.5758263 94.0293991,10.9799891 C94.1806487,10.8812139 94.3380717,10.800959 94.5047549,10.7423112 C103.051899,7.6555854 111.972536,5.74490213 121.189499,3.53171974 C126.202342,2.32789667 132.885103,0.444993936 138.820877,0.466601017 C141.077274,0.469687743 143.231808,0.738232887 145.136318,1.44200637 C149.457734,3.01932325 150.559695,8.75137306 147.105649,11.8041449 C141.503242,16.7583398 130.690441,17.0392318 123.526151,17.6689239 C117.645938,18.1874938 111.83672,18.5517275 106.05837,18.8418797 C102.743226,19.0085629 99.4311693,19.1567257 96.1283727,19.2863682 C95.832047,19.2987151 95.5635018,19.2801948 95.3042169,19.2431541" id="path64657" fill="#231F20"></path>
                <path d="M101.659785,49.1133996 C101.641265,49.0547518 101.619658,49.0022775 101.610398,48.9374563 C99.3478277,39.112408 97.329109,29.1916713 95.3782983,19.5888673 L95.3042169,19.2431541 C95.5635018,19.2801948 95.832047,19.2987151 96.1283727,19.2863682 C99.4311693,19.1567257 102.743226,19.0085629 106.05837,18.8418797 C107.364055,25.5092074 108.962979,32.3030909 110.527949,38.9025107 C110.527949,38.9025107 112.058965,45.372288 112.358377,46.677973 C112.367637,46.7242739 112.386157,46.7644013 112.395418,46.8137889 C113.182533,50.2246209 113.954214,53.7157078 114.670335,57.2500088 C111.006391,57.3426106 107.339361,57.4290389 103.675417,57.5247274 C103.005598,54.8361893 102.335778,52.0457891 101.659785,49.1133996" id="path64659" fill="#F4BFD9"></path>
                <path d="M50.001114,63.1796091 C123.240227,61.7460719 196.931515,58.4492327 270.141768,62.5734688 C264.15102,105.967895 258.089709,152.450682 236.35243,191.04417 C233.251228,196.541042 229.604817,201.614569 225.547902,206.322505 C221.484598,203.073788 217.167935,200.13612 212.646006,197.538425 C207.152344,194.385921 201.382883,191.711242 195.501188,189.52405 C194.36268,189.097495 193.220993,188.696622 192.072855,188.305379 C183.442709,185.386973 174.40209,183.356895 165.226767,182.327441 C152.918139,180.938816 140.381834,181.349319 128.297735,183.79626 C119.157662,185.662772 110.283789,188.690202 101.964754,192.997264 C97.6705317,195.222948 93.7290607,197.772553 90.0506096,200.549834 C87.8249259,197.487123 85.6858249,194.341009 83.7199202,191.04417 C61.4245923,153.537889 55.8539474,105.935824 50.001114,63.1796091" id="path64661" fill="#F1635D"></path>
                <path d="M223.091578,203.588592 C226.996286,199.057279 230.505894,194.174079 233.490757,188.883431 C254.412585,151.737772 260.246497,106.998769 266.012501,65.2322818 C195.548724,61.2627524 124.621939,64.4359065 54.1303814,65.8156729 C59.763656,106.967901 65.1252987,152.784172 86.5842165,188.883431 C88.4763794,192.056585 90.5352255,195.084663 92.6774132,198.032486 C90.4549706,199.708578 88.3158697,201.455665 86.3280182,203.326221 C86.2323297,203.412649 86.139728,203.511424 86.0409527,203.604026 C85.8434023,203.335481 85.6242448,203.094716 85.4205209,202.826171 C83.7197349,200.5173 82.1146375,198.131261 80.6175755,195.683488 C78.0957205,191.562709 75.8177169,187.324634 73.6786159,183.012478 C73.8298655,183.040259 73.9842018,183.074213 74.1323646,183.098906 L74.1354513,183.098906 C76.2992461,183.475487 78.0401595,181.987685 78.5803365,180.391848 C79.1359471,178.737363 78.4568675,177.126092 76.8548568,176.295763 C74.2527469,174.94995 71.5734689,173.730694 68.8633237,172.573171 C59.7574826,150.916703 54.473008,127.439067 50.5466928,103.970691 C50.0497299,101.016694 49.5743741,98.0657841 49.114452,95.1148742 C47.5000944,84.6786543 46.0832873,74.291822 44.6603067,64.1118003 C44.1016093,60.0836231 48.2007812,57.6512832 51.0374822,58.4816124 C51.5375318,58.2315876 52.1209229,58.0741646 52.8154362,58.092685 C69.7646476,58.318016 86.7169457,57.956869 103.675417,57.5247274 C107.339361,57.4290389 111.006391,57.3426106 114.670335,57.2500088 C131.81401,56.8116938 148.957685,56.4227663 166.107533,56.6295769 C179.062521,56.7839132 192.011336,56.7499593 204.963238,56.7684796 C208.59014,56.7684796 212.213957,56.7839132 215.843946,56.7993469 C233.648181,56.8919486 251.455502,57.2160548 269.253563,58.4322248 C272.081003,57.7778389 275.951758,60.1854851 275.405407,64.1118003 C270.506773,99.2418266 266.040281,138.393857 251.776521,172.116336 C250.233158,175.755586 248.58176,179.330014 246.797632,182.830361 C244.556669,187.238206 242.12433,191.538015 239.448138,195.683488 C236.389193,200.440132 233.009228,204.909711 229.388499,209.141612 C227.678453,207.477867 225.909759,205.878943 224.07007,204.357187 C223.749051,204.097902 223.415684,203.850964 223.091578,203.588592" id="path64663" fill="#EE3424"></path>
                <path d="M284.995864,347.784988 C294.823999,357.82302 291.206356,373.488154 283.588317,383.770037 C273.056409,397.99367 258.681527,401.401415 241.914432,399.975348 C241.707622,399.685196 241.457597,399.41665 241.118057,399.182059 C227.946998,389.97127 238.204188,365.212642 245.069066,355.257951 C254.156387,342.077632 271.756897,334.240435 284.995864,347.784988 Z M271.898887,381.251269 C280.918299,382.35323 281.020161,365.27129 270.818533,367.932047 C264.2222,369.651354 265.308727,380.44872 271.898887,381.251269 Z M252.792054,376.321768 C261.811467,377.426816 261.913329,360.341789 251.7117,363.002546 C245.124627,364.721852 246.204981,375.522306 252.792054,376.321768 L252.792054,376.321768 Z" id="path64665" fill="#F4BFD9"></path>
                <path d="M119.427164,241.638167 C128.190471,244.72906 133.824302,252.573974 136.811017,261.067162 C142.348387,276.865055 137.984097,293.288041 123.50976,302.36391 C112.593246,309.205546 95.9387242,312.080368 84.6749222,304.378215 C79.2263265,300.65834 76.0775266,294.866284 74.730819,288.406693 C72.4039834,277.185334 75.5296019,263.914944 81.5763126,255.919552 C89.9576065,244.837096 105.531682,236.749071 119.427164,241.638167" id="path64675" fill="#F5A2C6"></path>
                <path d="M92.6490462,204.564152 C97.9551279,199.356846 105.23088,195.96796 112.373564,192.476873 C118.364898,189.54757 128.251774,186.269128 134.749332,184.741199 C146.247385,182.031054 155.804135,183.227222 167.623208,184.517411 C175.836986,185.403302 181.433466,188.268092 189.150281,190.876375 C190.307803,191.271476 198.247942,193.464656 199.393117,193.896798 C204.470781,195.801308 206.361957,196.703218 211.279111,199.462751 C215.174559,201.654326 218.244585,205.903235 221.80358,208.628814 C225.878058,211.761841 229.662384,215.603889 232.977528,219.446862 C236.301931,223.289836 238.094979,224.987782 240.339029,229.540702 C241.132318,231.161234 242.571997,236.402587 243.201689,238.115719 C245.479693,244.249043 247.305183,252.522148 247.478039,258.58139 C247.67559,265.588258 244.828054,271.791311 242.85255,278.53272 L233.822858,300.920928 C248.092792,308.202514 267.885063,323.1356 279.571407,334.334241 C264.677955,331.86486 248.186752,340.169048 240.176698,355.0625 C234.012507,366.526599 229.865861,389.615987 238.644509,401.592484 C218.330767,399.385475 186.051363,394.018245 166.064813,387.770712 L176.064817,390.621674 C170.792689,388.976449 149.740941,382.679775 149.740941,382.679775 C130.720568,373.887761 117.559325,366.019913 104.210933,356.404979 C99.7722216,352.845984 85.5117027,339.869882 85.5117027,339.869882 C85.5117027,339.869882 75.2873557,322.416423 70.2600362,310.390817 C66.052829,298.568658 63.1015796,284.59255 63.6263229,272.05427 C63.9041283,265.448676 65.0946784,251.768153 66.5300059,245.424932 C68.2246184,237.899494 72.8924269,231.729438 76.2970854,225.006549 C80.0598042,217.5768 86.6824052,210.416522 92.6490462,204.56409 L92.6490462,204.564152 Z M175.954189,378.880664 C178.608773,381.723538 181.859095,383.732997 185.368702,384.745443 C189.430833,385.918399 193.835591,385.745542 198.011931,383.979935 C205.031146,381.013591 210.040902,374.182667 210.111896,366.475113 C210.210672,354.705427 198.681751,344.790864 186.908978,345.760096 C171.049381,347.059607 165.832815,368.021562 175.954189,378.880664 L175.954189,378.880664 Z M128.276622,349.411693 C129.375496,352.310128 130.952813,355.122135 132.925231,357.505088 C134.675404,359.619495 136.703383,361.573392 138.947433,363.085888 C143.244155,365.971976 148.297125,367.246794 153.556906,364.965704 C159.613062,362.341987 163.588765,356.143841 165.255597,349.967303 C167.941048,340.083607 164.628992,329.298587 154.927412,324.791968 C144.852339,320.106318 133.19995,323.683833 128.650116,334.039798 C126.495581,338.932258 126.384459,344.420457 128.276622,349.411693 L128.276622,349.411693 Z M86.5718696,259.652793 C81.7349703,266.048489 79.2347224,276.663739 81.096018,285.639938 C82.1732853,290.807116 84.6920536,295.440292 89.0505104,298.415896 C98.060663,304.577 111.382972,302.27739 120.115319,296.804625 C131.693627,289.544646 135.184714,276.407541 130.755263,263.770485 C128.366137,256.976602 123.859517,250.701288 116.849563,248.228821 C105.734263,244.317939 93.276238,250.787716 86.5718696,259.652793 L86.5718696,259.652793 Z" id="path64667" fill="#F4BFD9"></path>
                <path d="M251.7117,363.002546 C261.913329,360.341789 261.811467,377.426816 252.792054,376.321768 C246.204981,375.522306 245.124627,364.721852 251.7117,363.002546" id="path64669" fill="#C0739C"></path>
                <path d="M270.818533,367.932047 C281.020161,365.27129 280.918299,382.35323 271.898887,381.251269 C265.308727,380.44872 264.2222,369.651354 270.818533,367.932047" id="path64671" fill="#C0739C"></path>
                <path d="M86.0409527,203.604026 C86.139728,203.511424 86.2323297,203.412649 86.3280182,203.326221 C88.3158697,201.455665 90.4549706,199.708578 92.6774132,198.032486 C96.2178877,195.359381 100.011474,192.905434 104.1446,190.763247 C112.151566,186.617774 120.692537,183.703905 129.489705,181.90743 C141.120488,179.552258 153.186499,179.157158 165.033353,180.49371 C173.864475,181.484549 182.565955,183.438446 190.872334,186.247367 C191.977382,186.623947 193.076257,187.009788 194.172044,187.420323 C199.833099,189.52547 205.386119,192.099799 210.67368,195.13405 C215.025964,197.634298 219.180697,200.461739 223.091578,203.588592 C223.415684,203.850964 223.749051,204.097902 224.07007,204.357187 C225.909759,205.878943 227.678453,207.477867 229.388499,209.141612 C231.604768,211.289973 233.713002,213.549456 235.660726,215.932409 C238.256662,219.111736 240.599487,222.497875 242.642899,226.09391 C243.315806,227.285386 243.960931,228.495383 244.572103,229.736247 C245.553682,231.730271 246.408705,233.73973 247.137172,235.764622 C249.452217,242.138711 250.585045,248.654789 250.720861,255.161607 C250.87211,262.668524 249.705328,270.172355 247.519926,277.466288 C245.340698,284.760221 242.14285,291.844256 238.228882,298.517758 C259.922391,306.6698 279.628048,325.971097 292.76824,343.111685 C293.268289,343.769158 293.453493,344.448237 293.419539,345.10571 C301.583929,355.89073 299.636205,371.842929 293.218902,383.732997 C283.646965,401.478583 260.672465,413.735971 240.673568,407.602647 C240.250687,407.473005 239.88954,407.272368 239.571607,407.040863 C216.448944,404.46036 192.955874,400.44453 170.435123,393.659907 C170.419689,393.653733 170.404256,393.64756 170.391909,393.644473 C169.311555,393.31728 168.234287,392.97774 167.160107,392.644374 C165.323505,392.06407 163.483816,391.468332 161.659561,390.850986 C160.687243,390.523793 159.714924,390.17808 158.745692,389.835454 C156.896743,389.181068 155.050881,388.517422 153.220453,387.822908 C153.371703,389.684204 153.445784,391.533153 153.467391,393.323454 C153.526039,397.931935 152.896347,402.633019 151.578315,407.05321 C149.408347,414.316276 145.03137,420.749012 138.793097,425.082776 C128.5143,432.216199 113.451078,429.882634 109.848869,416.745529 C108.083262,410.303532 109.558717,403.250364 111.750292,397.10778 C114.661074,388.931043 119.164607,381.405605 124.396608,374.475906 C122.911892,373.645577 121.433351,372.79364 119.970243,371.920097 C119.788126,371.812062 119.609096,371.697853 119.426979,371.592904 C117.010073,370.14523 114.614773,368.638908 112.262688,367.073938 C112.191694,367.02455 112.114526,366.975162 112.046618,366.925775 C111.435446,366.521414 110.830448,366.101619 110.225449,365.687998 C108.682086,369.639007 106.688062,373.48198 104.721817,376.926766 C101.962284,381.754405 98.4557639,386.304239 94.2392965,389.940402 C87.9979369,395.329826 79.7532923,398.765351 71.4777804,396.80528 C64.5666014,395.172403 59.4796772,389.128593 58.4703179,382.201981 C57.0226435,372.22877 62.0447464,363.005633 68.1225095,355.489456 C72.4655327,350.115466 77.8148285,345.488464 83.5067509,341.444853 C75.1015965,331.079628 68.4929166,319.279075 64.2949695,306.524724 C60.6063322,295.341517 58.7944241,283.562571 58.9487604,271.783625 C59.0475356,264.344616 59.8130436,257.013642 61.2761517,249.929607 C61.6681658,248.01275 62.1311747,246.1175 62.6373977,244.231511 C64.3690509,237.715433 66.7118758,231.443206 69.7214334,225.55682 C73.8854265,217.404777 79.3057171,209.987375 86.0409527,203.604026 L86.0409527,203.604026 Z M241.118057,399.182059 C241.457597,399.41665 241.707622,399.685196 241.914432,399.975348 C258.681527,401.401415 273.056409,397.99367 283.588317,383.770037 C291.206356,373.488154 294.823999,357.82302 284.995864,347.784988 C271.756897,334.240435 254.156387,342.077632 245.069066,355.257951 C238.204188,365.212642 227.946998,389.97127 241.118057,399.182059 Z M122.124777,420.569982 C122.118604,420.569982 122.11243,420.569982 122.106257,420.569982 C121.260494,420.236616 122.680388,420.866308 122.124777,420.569982 Z M120.491899,419.625444 C120.485726,419.619271 120.479553,419.613097 120.473379,419.606924 C120.007283,419.295165 121.174066,420.208835 120.491899,419.625444 Z M117.399,405.019058 C116.750788,408.167518 116.7014,411.741947 117.315659,414.325536 C117.905223,416.804177 118.519482,417.930832 120.479553,419.613097 C120.513506,419.637791 120.535114,419.650138 120.584501,419.687179 C120.809832,419.841515 121.053683,419.989678 121.291361,420.128581 C121.532126,420.273657 121.779064,420.397126 122.026002,420.523682 C122.081563,420.551462 122.100084,420.557635 122.134038,420.579243 C122.643347,420.77988 123.189698,420.924956 123.723701,421.060772 C124.004593,421.125593 124.282399,421.178067 124.557117,421.227455 C124.560204,421.227455 124.566377,421.227455 124.566377,421.227455 C124.378087,421.221282 124.637372,421.261409 124.726887,421.267582 C124.779362,421.276843 124.773188,421.261409 124.566377,421.227455 C124.637372,421.227455 124.739234,421.233628 124.942958,421.249062 C125.532523,421.295363 126.122087,421.283016 126.717825,421.258322 C127.171574,421.239802 127.313563,421.242889 127.359864,421.249062 C127.359864,421.239802 127.430859,421.212021 127.785832,421.15646 C128.406264,421.045338 129.020523,420.891002 129.625521,420.718145 C129.940367,420.631717 131.233705,420.150188 131.289266,420.153274 C131.233705,420.174881 131.193578,420.199575 131.14419,420.224269 C131.264572,420.168708 131.29544,420.153274 131.289266,420.153274 C136.829939,417.717848 140.688346,413.103193 142.907702,407.596474 C144.534407,403.58373 145.2567,399.364176 145.395603,395.073627 C145.515985,391.335602 144.886293,387.792041 144.281295,384.220699 C139.493783,382.1742 134.78344,379.954844 130.162611,377.565719 C124.628112,386.069648 119.451673,395.095234 117.399,405.019058 L117.399,405.019058 Z M67.3045271,371.123722 C66.0544032,374.559248 65.5636138,378.34666 66.1871324,381.31609 C66.7489165,383.942894 68.2768458,386.254852 69.7276069,387.341379 C72.2278548,389.202675 74.0088956,389.529868 77.043147,389.428006 C79.9446693,389.323057 83.4018022,387.866123 86.3557988,385.927659 C95.066539,380.201782 99.7120613,370.197704 103.159934,360.564033 C97.588394,356.276571 92.3934344,351.510666 87.6861776,346.309533 C79.1915082,353.004641 70.9839043,361.020868 67.3045271,371.123722 Z M69.0300069,252.210697 C67.5946794,258.553919 66.7612634,265.091604 66.4834581,271.697197 C65.9587147,284.235477 67.8385307,296.783018 72.045738,308.605177 C74.2434867,314.763195 77.1820497,320.572413 80.6731366,326.032831 C80.6762233,326.035918 80.67931,326.039005 80.6885702,326.045178 C81.670149,327.585454 82.7042022,329.09795 83.7722093,330.579578 C83.843204,330.675267 83.9141987,330.764782 83.9790199,330.857384 C84.9544253,332.187763 85.9545244,333.496534 86.9885776,334.780612 C87.1429139,334.968903 87.28799,335.157193 87.4392395,335.342396 C88.0565847,336.095557 88.7017104,336.824025 89.3406626,337.564839 C89.7697175,337.29938 90.1956857,337.018488 90.6278273,336.756117 C93.9398841,334.740485 96.6037284,339.657639 93.603431,341.843041 C93.5262628,341.901689 93.4490947,341.95725 93.3688398,342.012811 C97.3198488,346.139763 101.557923,349.98891 105.996635,353.547905 C108.061655,351.127912 113.176359,352.677448 112.756565,356.199403 C112.673223,356.92787 112.537407,357.665597 112.395418,358.406412 C114.380182,359.823219 116.386554,361.212245 118.433053,362.545711 C119.022618,362.925378 119.621443,363.277265 120.214094,363.650759 C121.91488,364.728026 123.603319,365.79912 125.341146,366.820826 C125.92145,367.160366 126.514101,367.475212 127.100579,367.808578 C127.699404,368.154292 128.310576,368.484571 128.921748,368.824111 C129.03287,368.688295 129.143992,368.546306 129.258201,368.41049 C131.329394,365.975063 135.342137,368.935233 134.061146,371.614511 C137.277514,373.287517 140.564877,374.85866 143.892368,376.364982 C145.272134,374.074632 149.426867,373.494327 150.661557,376.318681 C151.143087,377.432989 151.528927,378.599772 151.868467,379.794335 C152.992035,380.25117 154.10943,380.732699 155.248432,381.174101 C155.319427,381.195708 155.387335,381.223489 155.455243,381.251269 C160.582294,383.236034 165.792687,385.047942 171.064815,386.693167 L171.064815,386.69934 C191.051364,392.946873 211.902197,396.885535 232.21594,399.092544 C223.437292,387.116048 230.441072,366.169527 236.605264,354.705427 C244.615317,339.811975 258.249385,331.150623 273.142837,333.620003 C261.456493,322.421362 248.807091,312.488279 234.537158,305.206692 C234.237745,305.60488 233.919812,305.975287 233.558665,306.28396 C230.570715,308.845942 226.826516,305.700568 228.323579,302.261956 C226.943812,301.647698 225.554785,301.058133 224.144152,300.499436 C220.791968,299.178317 222.079132,294.613049 225.61652,295.153226 C227.730927,295.480419 229.832987,295.937255 231.922701,296.495952 C235.432308,290.155817 238.355437,283.544051 240.352549,276.74708 C242.328053,270.005671 243.389887,263.088319 243.192337,256.081451 C243.01948,250.022208 241.908259,243.891971 239.630255,237.758647 C239.000563,236.045514 238.275182,234.375595 237.481894,232.755064 C235.237844,228.202144 232.373363,224.004197 229.048959,220.161223 C225.733816,216.318249 221.94949,212.833336 217.875012,209.700309 C214.316017,206.97473 210.531691,204.511523 206.636243,202.319948 C201.719089,199.560415 196.613644,197.229937 191.53598,195.325427 C190.390805,194.893286 189.23637,194.485838 188.078848,194.090737 C180.362033,191.482454 172.265551,189.689066 164.051774,188.803176 C152.232701,187.512924 140.17595,188.102489 128.677896,190.812634 C122.180338,192.340563 115.864897,194.547572 109.873563,197.476875 C102.730879,200.967962 96.5265603,205.428281 91.2204786,210.635587 C85.2538377,216.488019 80.4169383,223.291163 76.6542196,230.720912 C73.249561,237.443801 70.7246193,244.68526 69.0300069,252.210697 L69.0300069,252.210697 Z" id="path64673" fill="#EB99C2"></path>
                <path d="M186.075562,353.359615 C193.468271,352.303955 203.021687,358.418758 202.324087,366.475113 C201.712915,373.562235 195.909871,377.010108 189.344405,377.507071 C185.698982,377.784876 182.964143,377.037888 180.488589,374.083892 C178.346401,371.518823 177.401863,368.120338 177.587067,364.811368 C177.874132,359.730617 180.513283,354.15599 186.075562,353.359615 L186.075562,353.359615 Z M180.692313,367.104805 C181.575116,371.941704 188.578897,372.947977 191.569934,369.44763 C194.81717,365.632437 193.372582,360.230666 188.193056,359.335516 C184.1834,358.647176 179.976192,363.203183 180.692313,367.104805 L180.692313,367.104805 Z" id="path64677" fill="#FFFFFF"></path>
                <path d="M150.859108,330.613532 C158.588269,333.724952 161.730556,342.114673 158.023398,349.692585 C156.282485,353.2701 153.427264,356.943303 149.346612,357.866234 C145.883306,358.656436 140.660566,356.875396 138.277613,354.230072 C136.944148,352.745356 135.792799,351.084698 134.940863,349.27279 C133.221557,345.61502 132.866583,341.460287 134.335865,337.654354 C136.978102,330.81417 144.049791,327.88178 150.859108,330.613532 L150.859108,330.613532 Z M137.453458,345.213745 C138.333175,350.044471 145.340042,351.060004 148.327993,347.559657 C151.575228,343.744464 150.133727,338.342694 144.944941,337.447543 C140.944545,336.756117 136.737337,341.312124 137.453458,345.213745 L137.453458,345.213745 Z" id="path64679" fill="#FFFFFF"></path>
                <path d="M144.944941,337.447543 C150.133727,338.342694 151.575228,343.744464 148.327993,347.559657 C145.340042,351.060004 138.333175,350.044471 137.453458,345.213745 C136.737337,341.312124 140.944545,336.756117 144.944941,337.447543" id="path64681" fill="#231F20"></path>
                <path d="M188.193056,359.335516 C193.372582,360.230666 194.81717,365.632437 191.569934,369.44763 C188.578897,372.947977 181.575116,371.941704 180.692313,367.104805 C179.976192,363.203183 184.1834,358.647176 188.193056,359.335516" id="path64683" fill="#231F20"></path>
                <path d="M154.927412,324.791968 C164.628992,329.298587 167.941048,340.083607 165.255597,349.967303 C163.588765,356.143841 159.613062,362.341987 153.556906,364.965704 C148.297125,367.246794 143.244155,365.971976 138.947433,363.085888 C136.703383,361.573392 134.675404,359.619495 132.925231,357.505088 C130.952813,355.122135 129.375496,352.310128 128.276622,349.411693 C126.384459,344.420457 126.495581,338.932258 128.650116,334.039798 C133.19995,323.683833 144.852339,320.106318 154.927412,324.791968 L154.927412,324.791968 Z M134.940863,349.27279 C135.792799,351.084698 136.944148,352.745356 138.277613,354.230072 C140.660566,356.875396 145.883306,358.656436 149.346612,357.866234 C153.427264,356.943303 156.282485,353.2701 158.023398,349.692585 C161.730556,342.114673 158.588269,333.724952 150.859108,330.613532 C144.049791,327.88178 136.978102,330.81417 134.335865,337.654354 C132.866583,341.460287 133.221557,345.61502 134.940863,349.27279 L134.940863,349.27279 Z" id="path64685" fill="#EB99C2"></path>
                <path d="M186.908978,345.760096 C198.681751,344.790864 210.210672,354.705427 210.111896,366.475113 C210.040902,374.182667 205.031146,381.013591 198.011931,383.979935 C193.835591,385.745542 189.430833,385.918399 185.368702,384.745443 C181.859095,383.732997 178.608773,381.723538 175.954189,378.880664 C165.832815,368.021562 171.049381,347.059607 186.908978,345.760096 L186.908978,345.760096 Z M180.488589,374.083892 C182.964143,377.037888 185.698982,377.784876 189.344405,377.507071 C195.909871,377.010108 201.712915,373.562235 202.324087,366.475113 C203.021687,358.418758 193.468271,352.303955 186.075562,353.359615 C180.513283,354.15599 177.874132,359.730617 177.587067,364.811368 C177.401863,368.120338 178.346401,371.518823 180.488589,374.083892 L180.488589,374.083892 Z" id="path64687" fill="#EB99C2"></path>
                <path d="M191.480419,240.52744 C175.781332,236.89745 162.594839,241.289861 152.538287,253.698499 C149.868269,256.995122 144.481932,253.232403 146.451263,249.534506 C164.681466,215.311977 227.764881,233.40945 222.748952,272.681863 C222.350764,275.774762 217.217539,275.438309 217.26384,272.314542 C217.473737,256.433338 206.932569,244.092608 191.480419,240.52744" id="path64689" fill="#EF5091"></path>
                <path d="M144.281295,384.220699 C144.886293,387.792041 145.515985,391.335602 145.395603,395.073627 C145.2567,399.364176 144.534407,403.58373 142.907702,407.596474 C140.688346,413.103193 136.829939,417.717848 131.289266,420.153274 L131.289266,420.150188 L131.289266,420.153274 C131.233705,420.150188 129.940367,420.631717 129.625521,420.718145 C129.020523,420.891002 128.406264,421.045338 127.785832,421.15646 C127.430859,421.212021 127.359864,421.239802 127.359864,421.249062 C127.313563,421.242889 127.171574,421.239802 126.717825,421.258322 C126.122087,421.283016 125.532523,421.295363 124.942958,421.249062 C124.739234,421.233628 124.637372,421.227455 124.566377,421.227455 C124.566377,421.227455 124.560204,421.227455 124.557117,421.227455 C124.282399,421.178067 124.004593,421.125593 123.723701,421.060772 C123.189698,420.924956 122.643347,420.77988 122.134038,420.579243 C122.100084,420.557635 122.081563,420.551462 122.026002,420.523682 C121.779064,420.397126 121.532126,420.273657 121.291361,420.128581 C121.053683,419.989678 120.809832,419.841515 120.584501,419.687179 C120.535114,419.650138 120.513506,419.637791 120.479553,419.613097 C118.519482,417.930832 117.905223,416.804177 117.315659,414.325536 C116.7014,411.741947 116.750788,408.167518 117.399,405.019058 C119.451673,395.095234 124.628112,386.069648 130.162611,377.565719 C134.78344,379.954844 139.493783,382.1742 144.281295,384.220699" id="path64691" fill="#F4BFD9"></path>
                <path d="M131.289266,420.153274 C131.29544,420.153274 131.264572,420.168708 131.14419,420.224269 C131.193578,420.199575 131.233705,420.174881 131.289266,420.153274 L131.289266,420.150188 L131.289266,420.153274" id="path64693" fill="#908E73"></path>
                <path d="M120.491899,419.625444 C121.174066,420.208835 120.007283,419.295165 120.473379,419.606924 C120.479553,419.613097 120.485726,419.619271 120.491899,419.625444" id="path64695" fill="#908E73"></path>
                <path d="M124.566377,421.227455 C124.773188,421.261409 124.779362,421.276843 124.726887,421.267582 C124.637372,421.261409 124.378087,421.221282 124.566377,421.227455" id="path64697" fill="#908E73"></path>
                <path d="M122.124777,420.569982 C122.680388,420.866308 121.260494,420.236616 122.106257,420.569982 C122.11243,420.569982 122.118604,420.569982 122.124777,420.569982" id="path64699" fill="#908E73"></path>
                <path d="M103.159934,360.564033 C99.7120613,370.197704 95.066539,380.201782 86.3557988,385.927659 C83.4018022,387.866123 79.9446693,389.323057 77.043147,389.428006 C74.0088956,389.529868 72.2278548,389.202675 69.7276069,387.341379 C68.2768458,386.254852 66.7489165,383.942894 66.1871324,381.31609 C65.5636138,378.34666 66.0544032,374.559248 67.3045271,371.123722 C70.9839043,361.020868 79.1915082,353.004641 87.6861776,346.309533 C92.3934344,351.510666 97.588394,356.276571 103.159934,360.564033" id="path64701" fill="#F4BFD9"></path>
                <path d="M78.5803365,180.391848 C78.0401595,181.987685 76.2992461,183.475487 74.1354513,183.098906 L74.1323646,183.098906 C73.9842018,183.074213 73.8298655,183.040259 73.6786159,183.012478 C64.7301978,181.398121 54.8434151,178.407083 44.2559456,174.091841 C44.2466854,174.085667 44.2250783,174.085667 44.2127314,174.076407 C37.4250214,171.310701 30.7700406,168.180761 24.5348545,164.840923 C24.0996261,165.134162 23.6366173,165.427401 23.1303942,165.723727 C17.6082418,168.998743 9.43767857,171.940393 3.64389424,171.13167 C1.58813486,170.847692 0.177501171,169.100605 0.128113558,166.7763 C0.084899397,164.791536 1.1621667,162.448711 3.60994026,162.013482 L7.75541301,161.531953 L12.3021601,160.967082 C13.2652186,160.760272 14.2591443,160.485553 15.2499833,160.173794 C9.98094231,156.855564 5.31072618,153.633022 1.56035433,149.376427 C-0.390456376,147.163245 0.220715332,144.629043 1.62208885,143.202975 C3.04815616,141.746041 5.62557221,141.070048 7.90666257,143.005425 L9.77104496,144.588915 C9.77104496,144.588915 13.9659053,148.064569 16.8087798,150.422827 C16.265516,148.879464 15.7469461,147.209546 15.3518452,145.50876 C15.2746771,145.175393 15.2407231,144.8482 15.2407231,144.524094 C15.2407231,142.428207 16.8303869,140.776809 18.5743869,140.196505 C20.633233,139.505078 22.5223092,140.32306 23.380419,142.280044 C24.1984013,144.135167 24.7601854,146.095238 25.2849288,147.990487 L26.9610209,153.099018 L27.7327024,154.475698 C27.7882635,154.55904 27.8438245,154.642381 27.8932121,154.72881 C27.9858139,154.762764 28.0660688,154.772024 28.164844,154.815238 C28.164844,154.815238 48.0526183,164.001334 48.0587918,164.001334 C48.068052,164.007507 48.0803989,164.013681 48.089659,164.016768 L48.0927458,164.016768 L49.756491,164.773015 L60.0445481,168.986396 C62.9615039,170.140832 65.9278474,171.323047 68.8633237,172.573171 C71.5734689,173.730694 74.2527469,174.94995 76.8548568,176.295763 C78.4568675,177.126092 79.1359471,178.737363 78.5803365,180.391848" id="path64703" fill="#F4BFD9"></path>
            </g>
        </g>
    </g>
</svg>