<svg xmlns="http://www.w3.org/2000/svg" viewBox="0 0 336 90.760002" height="90.76" width="336">
  <g fill="#f0401e">
    <path
      d="M79.646 87.607a2.563 2.563 0 0 0 3.189-.041 46.28 46.28 0 0 0 2.701-2.408 63.347 63.347 0 0 0 2.724-2.778 2.555 2.555 0 0 0-.377-3.794l-7.086-5.18s-1.278 1.74-3.969 4.234c-2.688 2.494-4.753 4.138-4.753 4.138l7.571 5.83M156.592 64.287c0 17.968-12.919 26.473-27.495 26.473-14.643 0-27.495-8.505-27.495-26.473V30.253a2.523 2.523 0 0 1 2.522-2.522h7.005v35.662c0 12.532 7.608 18.414 17.968 18.414 10.359 0 17.906-5.882 17.906-18.414V27.73h7.124a2.465 2.465 0 0 1 2.465 2.464v34.092M176.463 54.776h38.877c-1.216-11.318-8.63-18.606-18.93-18.606-11.189 0-18.413 7.673-19.947 18.606zm48.594 4.156c0 .322-.004.648-.013.974a2.69 2.69 0 0 1-2.692 2.608h-46.017c1.342 13.044 10.486 19.757 21.42 19.757 6.65 0 12.542-2.274 17.406-6.102 1.016-.799 2.496-.59 3.294.427l3.598 4.588c-7.546 7.226-15.985 9.465-24.873 9.465-17.903 0-30.627-12.727-30.627-31.46 0-18.544 12.788-31.458 30.051-31.458 16.433 0 28.325 12.786 28.453 31.201M279.533 39.482a2.5 2.5 0 0 1-3.374.97c-4.234-2.277-10.812-4.41-17.708-4.41-8.632 0-14.322 3.643-14.322 9.527 0 5.05 4.411 7.546 12.34 8.504l7.163.895c12.85 1.663 20.332 6.97 20.332 16.88 0 11.511-10.359 18.736-26.664 18.736-7.8 0-17.585-1.919-25.256-7.739l2.868-4.654c.805-1.307 2.532-1.718 3.819-.882 4.342 2.821 10.062 4.962 18.698 4.962 10.23 0 16.687-3.388 16.687-9.782 0-4.86-4.092-7.801-12.659-8.826l-7.225-.83c-13.619-1.662-20.013-7.737-20.013-16.753 0-11.445 9.653-18.35 24.168-18.35 8.418 0 16.185 2.095 21.893 5.272a2.503 2.503 0 0 1 .972 3.413l-1.719 3.067M332.908 79.643a2.585 2.585 0 0 0-3.488-.871c-3.137 1.79-6.837 2.924-10.62 2.924-7.032 0-12.021-4.155-12.021-13.618V36.36h16.169a2.448 2.448 0 0 0 2.448-2.448V27.73h-18.617V12.194a2.56 2.56 0 0 0-2.562-2.56h-6.965V27.73h-3.807a2.832 2.832 0 0 0-2.832 2.832v5.799h6.639v31.907c0 15.218 7.737 22.38 20.781 22.38 7.418 0 13.428-2.557 17.967-6.01l-3.092-4.995"/>
    <path
      d="M90.624 43.65C89.704 18.675 68.632-.896 43.657.027c-1.388.052-2.76.167-4.11.338C16.568 3.304-.84 23.408.03 46.997c.925 24.974 21.994 44.545 46.972 43.62 9.1-.336 17.716-3.396 25.072-8.815l-6.935-5.067a2.426 2.426 0 0 0-2.623-.165 34.868 34.868 0 0 1-18.123 4.547c-18.302-.453-33.396-15.202-34.227-33.49-.964-21.213 16.886-38.52 38.277-36.644 17.06 1.496 30.685 15.407 31.883 32.49a34.934 34.934 0 0 1-6.002 22.24c-.766 1.125-.532 2.648.567 3.451l5.886 4.304c6.749-8.472 10.248-18.923 9.846-29.817"/>
  </g>
</svg>
